<svg xmlns="http://www.w3.org/2000/svg" xmlns:xlink="http://www.w3.org/1999/xlink" version="1.1" class="marks" width="360" height="364" viewBox="0 0 360 364"><rect width="360" height="364" fill="white"/><g fill="none" stroke-miterlimit="10" transform="translate(44,27)"><g class="mark-group role-frame root" role="graphics-object" aria-roledescription="group mark container"><g transform="translate(0,0)"><path class="background" aria-hidden="true" d="M0.5,0.5h300v300h-300Z" stroke="#ddd"/><g><g class="mark-group role-axis" aria-hidden="true"><g transform="translate(0.5,300.5)"><path class="background" aria-hidden="true" d="M0,0h0v0h0Z" pointer-events="none"/><g><g class="mark-rule role-axis-grid" pointer-events="none"><line transform="translate(0,-300)" x2="0" y2="300" stroke="#ddd" stroke-width="1" opacity="1"/><line transform="translate(31,-300)" x2="0" y2="300" stroke="#ddd" stroke-width="1" opacity="1"/><line transform="translate(62,-300)" x2="0" y2="300" stroke="#ddd" stroke-width="1" opacity="1"/><line transform="translate(92,-300)" x2="0" y2="300" stroke="#ddd" stroke-width="1" opacity="1"/><line transform="translate(123,-300)" x2="0" y2="300" stroke="#ddd" stroke-width="1" opacity="1"/><line transform="translate(154,-300)" x2="0" y2="300" stroke="#ddd" stroke-width="1" opacity="1"/><line transform="translate(185,-300)" x2="0" y2="300" stroke="#ddd" stroke-width="1" opacity="1"/><line transform="translate(215,-300)" x2="0" y2="300" stroke="#ddd" stroke-width="1" opacity="1"/><line transform="translate(246,-300)" x2="0" y2="300" stroke="#ddd" stroke-width="1" opacity="1"/><line transform="translate(277,-300)" x2="0" y2="300" stroke="#ddd" stroke-width="1" opacity="1"/></g></g><path class="foreground" aria-hidden="true" d="" pointer-events="none" display="none"/></g></g><g class="mark-group role-axis" aria-hidden="true"><g transform="translate(0.5,0.5)"><path class="background" aria-hidden="true" d="M0,0h0v0h0Z" pointer-events="none"/><g><g class="mark-rule role-axis-grid" pointer-events="none"><line transform="translate(0,300)" x2="300" y2="0" stroke="#ddd" stroke-width="1" opacity="1"/><line transform="translate(0,270)" x2="300" y2="0" stroke="#ddd" stroke-width="1" opacity="1"/><line transform="translate(0,240)" x2="300" y2="0" stroke="#ddd" stroke-width="1" opacity="1"/><line transform="translate(0,210)" x2="300" y2="0" stroke="#ddd" stroke-width="1" opacity="1"/><line transform="translate(0,180)" x2="300" y2="0" stroke="#ddd" stroke-width="1" opacity="1"/><line transform="translate(0,150)" x2="300" y2="0" stroke="#ddd" stroke-width="1" opacity="1"/><line transform="translate(0,120)" x2="300" y2="0" stroke="#ddd" stroke-width="1" opacity="1"/><line transform="translate(0,90)" x2="300" y2="0" stroke="#ddd" stroke-width="1" opacity="1"/><line transform="translate(0,60)" x2="300" y2="0" stroke="#ddd" stroke-width="1" opacity="1"/><line transform="translate(0,30)" x2="300" y2="0" stroke="#ddd" stroke-width="1" opacity="1"/><line transform="translate(0,0)" x2="300" y2="0" stroke="#ddd" stroke-width="1" opacity="1"/></g></g><path class="foreground" aria-hidden="true" d="" pointer-events="none" display="none"/></g></g><g class="mark-group role-axis" role="graphics-symbol" aria-roledescription="axis" aria-label="X-axis titled 'Año' for a time scale with values from Wednesday, 01 January 2014, 12:00:00 AM to Sunday, 01 October 2023, 12:00:00 AM"><g transform="translate(0.5,300.5)"><path class="background" aria-hidden="true" d="M0,0h0v0h0Z" pointer-events="none"/><g><g class="mark-rule role-axis-tick" pointer-events="none"><line transform="translate(0,0)" x2="0" y2="5" stroke="#888" stroke-width="1" opacity="1"/><line transform="translate(31,0)" x2="0" y2="5" stroke="#888" stroke-width="1" opacity="1"/><line transform="translate(62,0)" x2="0" y2="5" stroke="#888" stroke-width="1" opacity="1"/><line transform="translate(92,0)" x2="0" y2="5" stroke="#888" stroke-width="1" opacity="1"/><line transform="translate(123,0)" x2="0" y2="5" stroke="#888" stroke-width="1" opacity="1"/><line transform="translate(154,0)" x2="0" y2="5" stroke="#888" stroke-width="1" opacity="1"/><line transform="translate(185,0)" x2="0" y2="5" stroke="#888" stroke-width="1" opacity="1"/><line transform="translate(215,0)" x2="0" y2="5" stroke="#888" stroke-width="1" opacity="1"/><line transform="translate(246,0)" x2="0" y2="5" stroke="#888" stroke-width="1" opacity="1"/><line transform="translate(277,0)" x2="0" y2="5" stroke="#888" stroke-width="1" opacity="1"/></g><g class="mark-text role-axis-label" pointer-events="none"><text text-anchor="start" transform="translate(0,15)" font-family="sans-serif" font-size="10px" fill="#000" opacity="1">2014</text><text text-anchor="middle" transform="translate(30.758426966292134,15)" font-family="sans-serif" font-size="10px" fill="#000" opacity="0">2015</text><text text-anchor="middle" transform="translate(61.51685393258427,15)" font-family="sans-serif" font-size="10px" fill="#000" opacity="1">2016</text><text text-anchor="middle" transform="translate(92.35955056179775,15)" font-family="sans-serif" font-size="10px" fill="#000" opacity="0">2017</text><text text-anchor="middle" transform="translate(123.11797752808988,15)" font-family="sans-serif" font-size="10px" fill="#000" opacity="1">2018</text><text text-anchor="middle" transform="translate(153.87640449438203,15)" font-family="sans-serif" font-size="10px" fill="#000" opacity="0">2019</text><text text-anchor="middle" transform="translate(184.63483146067415,15)" font-family="sans-serif" font-size="10px" fill="#000" opacity="1">2020</text><text text-anchor="middle" transform="translate(215.47752808988764,15)" font-family="sans-serif" font-size="10px" fill="#000" opacity="0">2021</text><text text-anchor="middle" transform="translate(246.23595505617976,15)" font-family="sans-serif" font-size="10px" fill="#000" opacity="1">2022</text><text text-anchor="middle" transform="translate(276.99438202247194,15)" font-family="sans-serif" font-size="10px" fill="#000" opacity="0">2023</text></g><g class="mark-rule role-axis-domain" pointer-events="none"><line transform="translate(0,0)" x2="300" y2="0" stroke="#888" stroke-width="1" opacity="1"/></g><g class="mark-text role-axis-title" pointer-events="none"><text text-anchor="middle" transform="translate(150,30)" font-family="sans-serif" font-size="11px" font-weight="bold" fill="#000" opacity="1">Año</text></g></g><path class="foreground" aria-hidden="true" d="" pointer-events="none" display="none"/></g></g><g class="mark-group role-axis" role="graphics-symbol" aria-roledescription="axis" aria-label="Y-axis titled 'VOLUMEN FÍSICO DE VENTAS' for a linear scale with values from −20 to 180"><g transform="translate(0.5,0.5)"><path class="background" aria-hidden="true" d="M0,0h0v0h0Z" pointer-events="none"/><g><g class="mark-rule role-axis-tick" pointer-events="none"><line transform="translate(0,300)" x2="-5" y2="0" stroke="#888" stroke-width="1" opacity="1"/><line transform="translate(0,270)" x2="-5" y2="0" stroke="#888" stroke-width="1" opacity="1"/><line transform="translate(0,240)" x2="-5" y2="0" stroke="#888" stroke-width="1" opacity="1"/><line transform="translate(0,210)" x2="-5" y2="0" stroke="#888" stroke-width="1" opacity="1"/><line transform="translate(0,180)" x2="-5" y2="0" stroke="#888" stroke-width="1" opacity="1"/><line transform="translate(0,150)" x2="-5" y2="0" stroke="#888" stroke-width="1" opacity="1"/><line transform="translate(0,120)" x2="-5" y2="0" stroke="#888" stroke-width="1" opacity="1"/><line transform="translate(0,90)" x2="-5" y2="0" stroke="#888" stroke-width="1" opacity="1"/><line transform="translate(0,60)" x2="-5" y2="0" stroke="#888" stroke-width="1" opacity="1"/><line transform="translate(0,30)" x2="-5" y2="0" stroke="#888" stroke-width="1" opacity="1"/><line transform="translate(0,0)" x2="-5" y2="0" stroke="#888" stroke-width="1" opacity="1"/></g><g class="mark-text role-axis-label" pointer-events="none"><text text-anchor="end" transform="translate(-7,303)" font-family="sans-serif" font-size="10px" fill="#000" opacity="1">−20</text><text text-anchor="end" transform="translate(-7,273)" font-family="sans-serif" font-size="10px" fill="#000" opacity="1">0</text><text text-anchor="end" transform="translate(-7,243)" font-family="sans-serif" font-size="10px" fill="#000" opacity="1">20</text><text text-anchor="end" transform="translate(-7,213)" font-family="sans-serif" font-size="10px" fill="#000" opacity="1">40</text><text text-anchor="end" transform="translate(-7,183)" font-family="sans-serif" font-size="10px" fill="#000" opacity="1">60</text><text text-anchor="end" transform="translate(-7,153)" font-family="sans-serif" font-size="10px" fill="#000" opacity="1">80</text><text text-anchor="end" transform="translate(-7,123)" font-family="sans-serif" font-size="10px" fill="#000" opacity="1">100</text><text text-anchor="end" transform="translate(-7,93.00000000000001)" font-family="sans-serif" font-size="10px" fill="#000" opacity="1">120</text><text text-anchor="end" transform="translate(-7,62.999999999999986)" font-family="sans-serif" font-size="10px" fill="#000" opacity="1">140</text><text text-anchor="end" transform="translate(-7,32.99999999999999)" font-family="sans-serif" font-size="10px" fill="#000" opacity="1">160</text><text text-anchor="end" transform="translate(-7,3)" font-family="sans-serif" font-size="10px" fill="#000" opacity="1">180</text></g><g class="mark-rule role-axis-domain" pointer-events="none"><line transform="translate(0,300)" x2="0" y2="-300" stroke="#888" stroke-width="1" opacity="1"/></g><g class="mark-text role-axis-title" pointer-events="none"><text text-anchor="middle" transform="translate(-27.96666717529297,150) rotate(-90) translate(0,-2)" font-family="sans-serif" font-size="11px" font-weight="bold" fill="#000" opacity="1">VOLUMEN FÍSICO DE VENTAS</text></g></g><path class="foreground" aria-hidden="true" d="" pointer-events="none" display="none"/></g></g><g class="mark-line role-mark marks" role="graphics-object" aria-roledescription="line mark container"><path aria-label="Año: null; VOLUMEN FÍSICO DE VENTAS: null" role="graphics-symbol" aria-roledescription="line mark" d="M0,129.255L2.612,135.435L4.972,115.47L7.584,123.63L10.116,122.73L12.728,129.285L15.256,127.695L17.869,124.32L20.481,121.11L23.006,115.68L25.618,117.96L28.146,77.43L30.758,124.68L33.371,132.135L35.73,110.85L38.343,119.145L40.871,122.55L43.483,122.16L46.011,121.455L48.624,119.175L51.236,117.165L53.764,112.26L56.376,108.99L58.904,74.19L61.517,120.63L64.129,123.015L66.573,105.885L69.185,113.325L71.713,114.705L74.329,118.08L76.857,117.525L79.47,114.105L82.079,110.25L84.607,111.165L87.219,99.645L89.747,65.865L92.36,114.39L94.972,121.83L97.331,94.32L99.944,115.23L102.472,104.4L105.088,111.96L107.616,110.985L110.228,105.525L112.837,104.265L115.365,100.26L117.978,89.085L120.506,59.085L123.118,101.49L125.73,115.11L128.09,89.265L130.702,99L133.23,97.035L135.846,100.875L138.374,108.96L140.987,96.45L143.596,105.045L146.124,83.895L148.736,90.66L151.264,55.245L153.876,96.18L156.489,108.21L158.848,83.865L161.461,94.365L163.992,87.3L166.605,97.44L169.133,98.025L171.745,90.945L174.357,96.075L176.882,101.28L179.494,98.805L182.022,52.62L184.635,92.415L187.247,101.34L189.691,100.44L192.303,138.42L194.835,129.72L197.447,124.2L199.975,116.595L202.588,87.6L205.2,83.055L207.725,73.74L210.337,71.235L212.865,36.585L215.478,83.745L218.09,92.535L220.449,67.785L223.062,93.6L225.593,60.51L228.206,63.165L230.734,53.31L233.346,46.68L235.959,50.34L238.483,47.4L241.096,44.505L243.624,5.685L246.236,62.79L248.848,83.61L251.208,50.31L253.82,70.35L256.352,63.165L258.964,73.62L261.492,77.925L264.105,73.335L266.717,78.135L269.242,72.9L271.854,65.745L274.382,26.715L276.994,77.595L279.607,90.06L281.966,58.77L284.579,82.905L287.11,73.455L289.723,89.295L292.251,87.315L294.863,79.95L297.475,84.825L300,74.595" stroke="#d69a96" stroke-width="2"/></g><g class="mark-group role-title"><g transform="translate(150,-22)"><path class="background" aria-hidden="true" d="M0,0h0v0h0Z" pointer-events="none"/><g><g class="mark-text role-title-text" role="graphics-symbol" aria-roledescription="title" aria-label="Title text 'ÍNDICE DE VENTAS DE COMERCIO AL POR MENOR'" pointer-events="none"><text text-anchor="middle" transform="translate(0,10)" font-family="sans-serif" font-size="13px" font-weight="bold" fill="#000" opacity="1">ÍNDICE DE VENTAS DE COMERCIO AL POR MENOR</text></g></g><path class="foreground" aria-hidden="true" d="" pointer-events="none" display="none"/></g></g></g><path class="foreground" aria-hidden="true" d="" display="none"/></g></g></g></svg>